:SAMPLES-PER-SECOND 30
:FULLY-SPECIFIED
:DEGREES
282
root  -7.41867 34.2355 -28.8508 -169.584 65.7495 -178.843
RightUpLeg  -11.6416 -12.9405 -0.99712
RightLeg  13.0393 0.267718 0.0446129
RightFoot  1.20236 0.00533496 0.122649
RightToes  -26.7944 -0.118837 -0.226045
Spine  -2.61497 -0.574049 0.49783
Spine1  -5.08481 -1.10134 1.56253
HEad  -76.0163 -19.5784 9.99223
LeftShoulder1  -1.94126e-019 -3.10601e-018 -2.51263e-017
LeftArm  -15.6718 33.058 -84.6484
LeftForeArm  25.6943 -8.29709 -1.45364
LeftHand  -0.387359 -0.202442 8.12213
RightShoulder  -4.96962e-017 0 -2.36833e-017
RightArm  -36.1047 -31.114 75.618
RightForeArm  48.4955 12.5602 1.5072
RightHand  -0.159757 -3.1465 -7.62415
LeftUpLeg  -9.09085 13.5204 -0.580089
LeftLeg  14.3992 22.1831 4.08554
LeftFoot  -2.1702 -0.017721 -0.774004
LeftToes  -10.6423 2.25955e-006 -3.67304e-008
283
root  -7.42577 34.2998 -28.8411 -169.475 65.7437 -178.752
RightUpLeg  -11.151 -12.8582 -0.937003
RightLeg  11.9462 0.185954 0.0277317
RightFoot  1.78673 0.00598082 0.131435
RightToes  -26.712 -0.118657 -0.225741
Spine  -2.52758 -0.497971 0.478315
Spine1  -4.98716 -0.927645 1.53558
HEad  -75.7484 -19.677 9.86002
LeftShoulder1  -1.94126e-019 -3.10601e-018 -2.51263e-017
LeftArm  -14.7789 32.2634 -84.7902
LeftForeArm  24.3548 -10.327 -1.80945
LeftHand  -0.384883 -0.481185 7.71142
RightShoulder  -4.96962e-017 0 -2.36833e-017
RightArm  -31.8262 -30.5285 76.1315
RightForeArm  46.3086 14.8925 1.35994
RightHand  -0.185508 -2.66753 -7.46887
LeftUpLeg  -8.57083 13.5584 -0.545965
LeftLeg  13.1355 22.2398 3.60438
LeftFoot  -1.61791 -0.00994716 -0.5429
LeftToes  -10.5681 2.25955e-006 -3.67304e-008
284
root  -7.42812 34.3716 -28.834 -169.486 65.5833 -178.754
RightUpLeg  -10.5076 -12.8963 -0.913388
RightLeg  10.6831 0.0761544 0.0102743
RightFoot  2.41189 0.00810076 0.135691
RightToes  -26.6001 -0.118468 -0.22543
Spine  -2.48234 -0.468959 0.454639
Spine1  -4.97146 -0.867803 1.51182
HEad  -74.7555 -19.6692 9.23604
LeftShoulder1  -1.94126e-019 -3.10601e-018 -2.51263e-017
LeftArm  -13.4834 31.1114 -84.7469
LeftForeArm  22.9718 -12.2538 -2.0995
LeftHand  -0.365442 -0.764115 7.01272
RightShoulder  -4.96962e-017 0 -2.36833e-017
RightArm  -28.6146 -29.7403 76.3992
RightForeArm  45.4911 16.7831 1.40964
RightHand  -0.211035 -2.09657 -7.16049
LeftUpLeg  -7.97426 13.5567 -0.520254
LeftLeg  11.7504 22.1657 3.05998
LeftFoot  -0.965008 -0.0036258 -0.268981
LeftToes  -10.6542 2.25955e-006 -3.67304e-008
285
root  -7.43024 34.4447 -28.832 -169.635 65.2303 -178.879
RightUpLeg  -9.77053 -13.1405 -0.940694
RightLeg  9.35011 -0.025175 -0.00143669
RightFoot  3.04531 0.00995017 0.134524
RightToes  -26.5702 -0.118266 -0.225103
Spine  -2.47371 -0.478234 0.410448
Spine1  -5.01768 -0.898489 1.44567
HEad  -72.8553 -19.6006 8.07616
LeftShoulder1  -1.94126e-019 -3.10601e-018 -2.51263e-017
LeftArm  -11.6075 29.5308 -84.4864
LeftForeArm  22.1943 -13.8596 -2.30207
LeftHand  -0.340912 -1.04319 6.28741
RightShoulder  -4.96962e-017 0 -2.36833e-017
RightArm  -26.3308 -28.6304 76.547
RightForeArm  45.5363 17.9399 1.60611
RightHand  -0.234298 -1.74789 -7.26901
LeftUpLeg  -7.33692 13.3814 -0.523801
LeftLeg  10.3068 22.0454 2.49483
LeftFoot  -0.286921 -0.00038044 0.00955892
LeftToes  -10.6742 2.25955e-006 -3.67304e-008
286
root  -7.43383 34.5108 -28.8251 -169.818 64.767 -179.017
RightUpLeg  -9.03124 -13.3148 -0.962477
RightLeg  8.08322 -0.320993 -0.0235644
RightFoot  3.61771 0.012663 0.117907
RightToes  -26.5056 -0.118047 -0.22475
Spine  -2.49212 -0.495412 0.356055
Spine1  -5.09834 -0.938039 1.34573
HEad  -70.3897 -19.3682 6.87222
LeftShoulder1  -1.94126e-019 -3.10601e-018 -2.51263e-017
LeftArm  -9.29426 27.5518 -84.1032
LeftForeArm  22.4208 -15.0318 -2.41802
LeftHand  -0.339904 -1.09877 6.22008
RightShoulder  -4.96962e-017 0 -2.36833e-017
RightArm  -24.5397 -27.1701 76.7446
RightForeArm  45.7939 18.2792 1.65657
RightHand  -0.254877 -1.5331 -7.51601
LeftUpLeg  -6.72625 13.1934 -0.514662
LeftLeg  8.92651 21.8309 1.95386
LeftFoot  0.380636 -0.00038436 0.277356
LeftToes  -10.7589 2.25955e-006 -3.67304e-008
287
root  -7.44293 34.5667 -28.8152 -170.065 64.2117 -179.189
RightUpLeg  -8.33534 -13.5291 -0.994879
RightLeg  6.97539 -0.66249 -0.0369538
RightFoot  4.11571 0.0157222 0.0932651
RightToes  -26.3399 -0.117809 -0.224364
Spine  -2.50297 -0.488457 0.278244
Spine1  -5.14318 -0.91418 1.18624
HEad  -67.9473 -18.9387 5.84889
LeftShoulder1  -1.94126e-019 -3.10601e-018 -2.51263e-017
LeftArm  -7.51344 25.1988 -83.7085
LeftForeArm  22.9967 -15.6733 -2.46212
LeftHand  -0.351907 -1.34012 6.2243
RightShoulder  -4.96962e-017 0 -2.36833e-017
RightArm  -23.2088 -25.4441 77.0408
RightForeArm  46.2427 17.9085 1.57012
RightHand  -0.264075 -1.52678 -7.78369
LeftUpLeg  -6.17925 12.8263 -0.510875
LeftLeg  7.72716 21.682 1.4957
LeftFoot  0.969906 -0.00294772 0.50986
LeftToes  -10.7568 2.25955e-006 -3.67304e-008
288
root  -7.45545 34.6199 -28.7984 -170.331 63.6148 -179.374
RightUpLeg  -7.65847 -13.76 -1.03604
RightLeg  5.92546 -1.03259 -0.0392945
RightFoot  4.58063 0.0190787 0.0613437
RightToes  -26.1698 -0.117548 -0.223933
Spine  -2.49766 -0.413487 0.16813
Spine1  -5.1351 -0.73803 0.949568
HEad  -65.8631 -18.2837 5.16876
LeftShoulder1  -1.94126e-019 -3.10601e-018 -2.51263e-017
LeftArm  -5.82685 22.7261 -83.2778
LeftForeArm  23.9875 -16.6385 -2.58473
LeftHand  -0.36118 -1.50621 6.24412
RightShoulder  -4.96962e-017 0 -2.36833e-017
RightArm  -22.1589 -23.7086 77.3973
RightForeArm  46.899 17.2058 1.41558
RightHand  -0.26201 -1.60517 -7.87155
LeftUpLeg  -5.66867 12.4629 -0.505455
LeftLeg  6.59138 21.481 1.06538
LeftFoot  1.57276 -0.00798853 0.743599
LeftToes  -10.727 2.25955e-006 -3.67304e-008
289
root  -7.45605 34.6613 -28.7817 -170.556 63.0689 -179.484
RightUpLeg  -7.09142 -14.1538 -1.05859
RightLeg  5.16982 -1.1649 -0.0291447
RightFoot  4.91906 0.0209518 0.0476255
RightToes  -25.983 -0.11726 -0.22345
Spine  -2.47534 -0.276462 0.0574024
Spine1  -5.08802 -0.42805 0.71403
HEad  -64.1994 -17.3489 4.75581
LeftShoulder1  -1.94126e-019 -3.10601e-018 -2.51263e-017
LeftArm  -4.49177 20.4106 -82.9603
LeftForeArm  25.7963 -18.2121 -2.83653
LeftHand  -0.383109 -1.72693 6.42605
RightShoulder  -4.96962e-017 0 -2.36833e-017
RightArm  -21.4511 -22.1714 77.7717
RightForeArm  47.9009 16.4701 1.28826
RightHand  -0.264404 -1.64053 -7.95416
LeftUpLeg  -5.25112 12.2537 -0.455872
LeftLeg  5.77823 21.1687 0.756576
LeftFoot  2.00686 -0.0130099 0.904372
LeftToes  -10.5475 2.25955e-006 -3.67304e-008
